<?xml version="1.0" encoding="UTF-8"?>
<svg id="Logo" xmlns="http://www.w3.org/2000/svg" viewBox="0 0 1911.13 1930">
  <defs>
    <style>
      .cls-1 {
        fill: #fff;
      }

      .cls-2 {
        fill: #fca311;
      }
    </style>
  </defs>
  <path class="cls-1" d="m1569.9,599.84h-154.89c-18.7,0-34.25-14.74-34.77-33.44-.59-20.96-2.25-43.3-6.96-69.56-27.16-151.32-258.51-278.37-577.4-278.37S218.51,343.09,218.47,496.81v936.38c.03,153.72,258.53,278.33,577.4,278.33s564.16-125.2,577.4-278.36c1.58-18.25,2.81-31.09,3.78-40.31,2.63-25,23.62-43.96,48.76-43.96h144.08c67.8,0,122.76-54.96,122.76-122.76v-503.53c0-67.8-54.96-122.76-122.76-122.76Zm-766.74,124.84c-232.7,0-421.34-83.84-421.34-187.26s188.64-187.26,421.34-187.26,421.34,83.84,421.34,187.26-188.64,187.26-421.34,187.26Zm733.45,390.13c0,43.09-34.93,78.03-78.03,78.03h0c-43.09,0-78.03-34.93-78.03-78.03v-280.9c0-43.09,34.93-78.03,78.03-78.03h0c43.09,0,78.03,34.93,78.03,78.03v280.9Z"/>
  <g>
    <path class="cls-2" d="m795.87,218.47c318.89,0,550.24,127.05,577.4,278.37,4.71,26.26,6.38,48.6,6.96,69.56.52,18.7,16.07,33.44,34.77,33.44h154.89c67.8,0,122.76,54.96,122.76,122.76v503.53c0,67.8-54.96,122.76-122.76,122.76h-144.08c-25.14,0-46.14,18.96-48.76,43.96-.97,9.23-2.2,22.06-3.78,40.31-13.24,153.17-258.51,278.36-577.4,278.36s-577.36-124.61-577.4-278.33V496.81c.03-153.72,258.53-278.34,577.4-278.34m0-218.47C334.78,0,.06,208.92,0,496.76v936.43c.06,287.89,334.78,496.81,795.87,496.81,380.22,0,674.67-144.3,766.53-362.63h7.5c188.16,0,341.24-153.08,341.24-341.24v-503.53c0-188.16-153.08-341.24-341.24-341.24h-3.26C1476.54,150.27,1179.59,0,795.87,0h0Z"/>
    <g>
      <ellipse class="cls-2" cx="803.15" cy="537.41" rx="421.34" ry="187.26"/>
      <rect class="cls-2" x="1380.55" y="755.89" width="156.05" height="436.95" rx="78.03" ry="78.03"/>
    </g>
  </g>
</svg>